<?xml version="1.0" standalone="no"?>
<!DOCTYPE svg PUBLIC "-//W3C//DTD SVG 20010904//EN"
 "http://www.w3.org/TR/2001/REC-SVG-20010904/DTD/svg10.dtd">
<svg version="1.0" xmlns="http://www.w3.org/2000/svg"
 width="120.000000pt" height="120.000000pt" viewBox="0 0 120.000000 120.000000"
 preserveAspectRatio="xMidYMid meet">
<metadata>
Created by potrace 1.11, written by Peter Selinger 2001-2013
</metadata>
<g transform="translate(0.000000,120.000000) scale(0.100000,-0.100000)"
fill="#000000" stroke="none">
<path d="M205 775 c-24 -23 -25 -31 -25 -133 0 -141 6 -150 116 -168 117 -19
118 -19 132 20 7 19 24 46 39 60 l26 26 -120 0 c-107 0 -123 2 -147 21 -23 18
-26 28 -26 80 0 104 -21 99 403 99 l364 0 21 -23 c29 -31 31 -114 3 -148 -18
-23 -27 -24 -145 -27 l-126 -4 23 -27 c13 -16 29 -42 36 -60 15 -34 21 -36
107 -21 138 24 134 19 134 170 0 174 36 160 -422 160 l-369 0 -24 -25z"/>
<path d="M230 750 c-28 -28 -28 -110 -1 -134 18 -16 37 -17 188 -12 201 7 160
7 374 0 176 -6 177 -6 193 17 27 39 17 118 -18 141 -6 4 -170 8 -363 8 -340 0
-354 -1 -373 -20z"/>
<path d="M520 577 c-119 -63 -117 -241 2 -303 130 -67 293 65 248 201 -36 109
-149 155 -250 102z m145 -79 c39 -35 44 -86 11 -125 -33 -39 -74 -50 -115 -29
-57 30 -68 94 -25 145 33 39 89 43 129 9z"/>
<path d="M564 498 c-47 -22 -56 -86 -19 -123 52 -53 135 -20 135 55 0 62 -58
97 -116 68z"/>
<path d="M418 254 c-59 -18 -77 -45 -48 -74 19 -19 33 -20 228 -20 172 0 211
3 230 16 70 49 -55 117 -148 80 -50 -20 -100 -20 -147 -1 -43 18 -54 18 -115
-1z"/>
</g>
</svg>
