<?xml version="1.0" standalone="no"?>
<!DOCTYPE svg PUBLIC "-//W3C//DTD SVG 20010904//EN"
 "http://www.w3.org/TR/2001/REC-SVG-20010904/DTD/svg10.dtd">
<svg version="1.0" xmlns="http://www.w3.org/2000/svg"
 width="120.000000pt" height="120.000000pt" viewBox="0 0 120.000000 120.000000"
 preserveAspectRatio="xMidYMid meet">
<metadata>
Created by potrace 1.11, written by Peter Selinger 2001-2013
</metadata>
<g transform="translate(0.000000,120.000000) scale(0.100000,-0.100000)"
fill="#000000" stroke="none">
<path d="M383 1111 c-23 -11 -49 -30 -58 -44 -19 -30 -30 -87 -21 -121 10 -40
55 -85 98 -98 l40 -12 -26 -13 c-38 -20 -33 -55 24 -172 53 -109 105 -253 140
-391 29 -114 45 -146 84 -164 30 -14 38 -14 80 0 53 18 76 45 76 89 0 17 -25
90 -55 163 -65 157 -98 260 -121 373 -22 113 -45 158 -77 152 l-25 -5 25 50
c19 39 23 58 17 87 -8 45 -47 93 -91 111 -43 18 -60 17 -110 -5z m115 -20 c45
-23 67 -60 66 -112 -2 -75 -63 -126 -137 -116 -119 16 -144 185 -34 232 43 19
61 18 105 -4z m72 -331 c10 -5 26 -33 35 -60 15 -46 15 -53 1 -75 -35 -53 -93
-37 -114 33 -16 53 -15 72 5 94 18 20 45 23 73 8z"/>
</g>
</svg>
